<?xml version="1.0" encoding="utf-8"?>
<svg viewBox="0 0 50 50" width="50px" height="50px" xmlns="http://www.w3.org/2000/svg" xmlns:bx="https://boxy-svg.com">
  <ellipse transform="matrix(1, 0.000066, -0.000066, 1, 9.148107, 18.042603)" cx="15.854" cy="6.958" rx="25" ry="25" style="fill: rgb(0, 100, 216);"/>
  <line style="fill: rgb(3, 226, 10); stroke: rgb(0, 235, 47); stroke-linecap: round; stroke-width: 7;" x1="21" y1="39" x2="37" y2="39" bx:origin="0 0"/>
  <rect x="25" y="27.866" width="11.475" height="9.169" style="fill: rgb(0, 235, 47);"/>
  <line style="fill: rgb(3, 226, 10); stroke-linecap: round; stroke-width: 7; stroke: rgb(0, 100, 216);" x1="9.003" y1="32" x2="25.003" y2="32" bx:origin="0 0"/>
  <path d="M 24.628 2.315 L 14.485 2.315 C 17.575 0.88 21.009 0.058 24.628 0.005 Z" style="fill: rgb(216, 216, 216);"/>
  <path d="M 24.628 2.315 C 23.208 2.315 21.986 1.469 21.437 0.254 C 22.601 0.088 23.792 0.002 25.003 0.002 C 25.969 0.002 26.922 0.057 27.859 0.164 C 27.331 1.427 26.083 2.315 24.628 2.315 Z" style="fill: rgb(216, 216, 216);"/>
  <path d="M 19.425 46.42 C 21.357 46.42 22.923 47.985 22.925 49.917 C 20.597 49.726 18.36 49.215 16.257 48.43 C 16.817 47.242 18.025 46.42 19.425 46.42 Z" style="fill: rgb(216, 216, 216);"/>
  <path d="M 19.425 46.42 L 37.903 46.42 C 34.136 48.694 29.721 50.002 25 50.002 C 23.084 50.002 21.218 49.786 19.425 49.378 Z" style="fill: rgb(216, 216, 216);"/>
  <ellipse transform="matrix(1, -0.000001, 0.000002, 1, -19.967071, -20.759578)" cx="44.967" cy="27.76" rx="3.5" ry="3.5" style="fill: rgb(0, 235, 47);"/>
  <path d="M 25 3.5 L 37.763 3.5 C 40.58 5.175 43.039 7.388 45 9.997 L 45 10.5 L 25 10.5 Z" style="fill: rgb(0, 235, 47);"/>
  <ellipse transform="matrix(1, -0.000001, 0.000002, 1, -13.297771, -14.249181)" cx="44.967" cy="27.76" rx="3.5" ry="3.5" style="fill: rgb(0, 235, 47);"/>
  <path d="M 31.67 10.011 L 45.011 10.011 C 46.588 12.112 47.841 14.47 48.698 17.011 L 31.67 17.011 Z" style="fill: rgb(0, 235, 47);"/>
  <path d="M 8.587 10.878 L 8.587 17.878 L 1.032 17.878 C 1.78 15.355 2.916 12.999 4.371 10.878 Z" style="fill: rgb(0, 235, 47);"/>
  <ellipse transform="matrix(1, -0.000001, 0.000002, 1, -36.379674, -13.381471)" cx="44.967" cy="27.76" rx="3.5" ry="3.5" style="fill: rgb(0, 235, 47);"/>
  <path d="M 4.984 16.778 L 4.984 23.778 L 0.031 23.778 C 0.149 21.336 0.617 18.987 1.386 16.778 Z" style="fill: rgb(0, 235, 47);"/>
  <ellipse transform="matrix(1, -0.000001, 0.000002, 1, -39.982954, -7.480789)" cx="44.967" cy="27.76" rx="3.5" ry="3.5" style="fill: rgb(0, 235, 47);"/>
  <path d="M 2.888 28.928 L 2.888 35.928 L 2.51 35.928 C 1.451 33.753 0.699 31.4 0.309 28.928 Z" style="fill: rgb(0, 235, 47);"/>
  <path d="M 6.387 32.428 C 6.387 34.361 4.82 35.928 2.887 35.928 C 2.756 35.928 2.627 35.921 2.499 35.907 C 1.584 34.021 0.898 32.002 0.479 29.888 C 1.107 29.293 1.954 28.928 2.887 28.928 C 4.82 28.928 6.387 30.495 6.387 32.428 Z" style="fill: rgb(0, 235, 47);"/>
  <ellipse transform="matrix(1, -0.000001, 0.000002, 1, -8.812217, 4.240209)" cx="44.967" cy="27.76" rx="3.5" ry="3.5" style="fill: rgb(0, 100, 216);"/>
  <path d="M 36.155 28.5 L 49.759 28.5 C 49.414 30.967 48.708 33.319 47.697 35.5 L 36.155 35.5 Z" style="fill: rgb(0, 100, 216);"/>
  <ellipse transform="matrix(1, -0.000001, 0.000002, 1, -20.467071, -2.758877)" cx="44.967" cy="27.76" rx="3.5" ry="3.5" style="fill: rgb(0, 235, 47);"/>
  <path d="M 24.5 21.5 L 49.759 21.5 C 49.919 22.645 50.002 23.814 50.002 25.003 C 50.002 26.19 49.919 27.357 49.759 28.5 L 24.5 28.5 Z" style="fill: rgb(0, 235, 47);"/>
  <line style="stroke-linecap: round; stroke-width: 7; fill: rgb(255, 255, 255); stroke: rgb(255, 255, 255);" x1="16.556" y1="13.839" x2="22.556" y2="13.839" bx:origin="0 0"/>
  <line style="stroke-linecap: round; stroke-width: 7; fill: rgb(255, 255, 255); stroke: rgb(255, 255, 255);" x1="18.208" y1="9.417" x2="24.208" y2="9.417" bx:origin="0 0"/>
  <line style="stroke-linecap: round; stroke-width: 7; fill: rgb(255, 255, 255); stroke: rgb(255, 255, 255);" x1="34.749" y1="22.518" x2="44" y2="22.518" bx:origin="0 0"/>
</svg>