<?xml version="1.0" encoding="utf-8"?>
<svg viewBox="0 0 70 70" width="70px" height="70px" xmlns="http://www.w3.org/2000/svg" xmlns:bx="https://boxy-svg.com">
  <defs>
    <bx:grid x="0" y="0" width="5" height="5"/>
  </defs>
  <g transform="matrix(0.707107, 0.707106, -0.707106, 0.707107, 34.999928, -14.497491)">
    <rect x="32.5" y="5" width="2" height="10" style="fill: rgb(128, 112, 88);"/>
    <rect x="35.5" y="7" width="2" height="10" style="fill: rgb(128, 112, 88);"/>
    <ellipse transform="matrix(1, -0.00004, 0.000036, 1, 12.019638, -4.707803)" cx="21.48" cy="8.578" rx="1.5" ry="1.5" style="fill: rgb(172, 172, 172); fill-opacity: 0.5;"/>
    <ellipse transform="matrix(1, -0.00004, 0.000038, 1, 0.198921, -11.795665)" cx="35.8" cy="14.297" rx="2.5" ry="2.5" style="fill: rgb(172, 172, 172); fill-opacity: 0.5;"/>
    <ellipse transform="matrix(1, -0.00004, 0.000036, 1, 15.019752, -2.699035)" cx="21.48" cy="8.578" rx="1.5" ry="1.5" style="fill: rgb(172, 172, 172); fill-opacity: 0.5;"/>
    <ellipse transform="matrix(1, -0.00004, 0.000034, 1, 9.359535, -7.479948)" cx="28.64" cy="11.438" rx="2" ry="2" style="fill: rgb(172, 172, 172); fill-opacity: 0.5;"/>
    <ellipse transform="matrix(1, -0.00004, 0.000033, 1, 18.741213, -5.077203)" cx="21.48" cy="8.578" rx="1.5" ry="1.5" style="fill: rgb(172, 172, 172); fill-opacity: 0.5;"/>
  </g>
  <g transform="matrix(-0.573576, 0.819152, -0.819152, -0.573576, 83.745262, 26.404659)">
    <rect x="32.5" y="5" width="2" height="10" style="fill: rgb(128, 112, 88);"/>
    <rect x="35.5" y="7" width="2" height="10" style="fill: rgb(128, 112, 88);"/>
    <ellipse transform="matrix(1, -0.00004, 0.000036, 1, 12.019638, -4.707803)" cx="21.48" cy="8.578" rx="1.5" ry="1.5" style="fill: rgb(172, 172, 172); fill-opacity: 0.5;"/>
    <ellipse transform="matrix(1, -0.00004, 0.000038, 1, 0.198921, -11.795665)" cx="35.8" cy="14.297" rx="2.5" ry="2.5" style="fill: rgb(172, 172, 172); fill-opacity: 0.5;"/>
    <ellipse transform="matrix(1, -0.00004, 0.000036, 1, 15.019752, -2.699035)" cx="21.48" cy="8.578" rx="1.5" ry="1.5" style="fill: rgb(172, 172, 172); fill-opacity: 0.5;"/>
    <ellipse transform="matrix(1, -0.00004, 0.000034, 1, 9.359535, -7.479948)" cx="28.64" cy="11.438" rx="2" ry="2" style="fill: rgb(172, 172, 172); fill-opacity: 0.5;"/>
    <ellipse transform="matrix(1, -0.00004, 0.000033, 1, 18.741213, -5.077203)" cx="21.48" cy="8.578" rx="1.5" ry="1.5" style="fill: rgb(172, 172, 172); fill-opacity: 0.5;"/>
  </g>
  <g transform="matrix(0.241921, -0.970296, 0.970296, 0.241921, -7.427634, 60.493042)">
    <rect x="32.5" y="5" width="2" height="10" style="fill: rgb(128, 112, 88);"/>
    <rect x="35.5" y="7" width="2" height="10" style="fill: rgb(128, 112, 88);"/>
    <ellipse transform="matrix(1, -0.00004, 0.000036, 1, 12.019638, -4.707803)" cx="21.48" cy="8.578" rx="1.5" ry="1.5" style="fill: rgb(172, 172, 172); fill-opacity: 0.5;"/>
    <ellipse transform="matrix(1, -0.00004, 0.000038, 1, 0.198921, -11.795665)" cx="35.8" cy="14.297" rx="2.5" ry="2.5" style="fill: rgb(172, 172, 172); fill-opacity: 0.5;"/>
    <ellipse transform="matrix(1, -0.00004, 0.000036, 1, 15.019752, -2.699035)" cx="21.48" cy="8.578" rx="1.5" ry="1.5" style="fill: rgb(172, 172, 172); fill-opacity: 0.5;"/>
    <ellipse transform="matrix(1, -0.00004, 0.000034, 1, 9.359535, -7.479948)" cx="28.64" cy="11.438" rx="2" ry="2" style="fill: rgb(172, 172, 172); fill-opacity: 0.5;"/>
    <ellipse transform="matrix(1, -0.00004, 0.000033, 1, 18.741213, -5.077203)" cx="21.48" cy="8.578" rx="1.5" ry="1.5" style="fill: rgb(172, 172, 172); fill-opacity: 0.5;"/>
  </g>
  <ellipse transform="matrix(1, 0.000066, -0.000066, 1, 19.14811, 28.042601)" cx="15.854" cy="6.958" rx="25" ry="25" style="fill: rgb(74, 106, 142);"/>
  <rect x="43" y="37.866" width="11.475" height="9.169" style="fill: rgb(85, 145, 97);"/>
  <line style="fill: rgb(3, 226, 10); stroke-linecap: round; stroke-width: 7; stroke: rgb(74, 106, 142);" x1="27.003" y1="42" x2="43.003" y2="42" bx:origin="0 0"/>
  <path d="M 34.628 12.315 L 24.485 12.315 C 27.575 10.88 31.009 10.058 34.628 10.005 Z" style="fill: rgb(216, 216, 216);"/>
  <path d="M 34.628 12.315 C 33.208 12.315 31.986 11.469 31.437 10.254 C 32.601 10.088 33.792 10.002 35.003 10.002 C 35.969 10.002 36.922 10.057 37.859 10.164 C 37.331 11.427 36.083 12.315 34.628 12.315 Z" style="fill: rgb(216, 216, 216);"/>
  <path d="M 29.425 56.42 C 31.357 56.42 32.923 57.985 32.925 59.917 C 30.597 59.726 28.36 59.215 26.257 58.43 C 26.817 57.242 28.025 56.42 29.425 56.42 Z" style="fill: rgb(216, 216, 216);"/>
  <path d="M 29.425 56.42 L 47.903 56.42 C 44.136 58.694 39.721 60.002 35 60.002 C 33.084 60.002 31.218 59.786 29.425 59.378 Z" style="fill: rgb(216, 216, 216);"/>
  <ellipse transform="matrix(1, -0.000001, 0.000002, 1, -9.967079, -10.759572)" cx="44.967" cy="27.76" rx="3.5" ry="3.5" style="fill: rgb(85, 145, 97);"/>
  <path d="M 35 13.5 L 47.763 13.5 C 50.58 15.175 53.039 17.388 55 19.997 L 55 20.5 L 35 20.5 Z" style="fill: rgb(85, 145, 97);"/>
  <ellipse transform="matrix(1, -0.000001, 0.000002, 1, -3.297779, -4.249197)" cx="44.967" cy="27.76" rx="3.5" ry="3.5" style="fill: rgb(85, 145, 97);"/>
  <path d="M 41.67 20.011 L 55.011 20.011 C 56.588 22.112 57.841 24.47 58.698 27.011 L 41.67 27.011 Z" style="fill: rgb(85, 145, 97);"/>
  <path d="M 18.587 20.878 L 18.587 27.878 L 11.032 27.878 C 11.78 25.355 12.916 22.999 14.371 20.878 Z" style="fill: rgb(85, 145, 97);"/>
  <ellipse transform="matrix(1, -0.000001, 0.000002, 1, -26.379682, -3.381461)" cx="44.967" cy="27.76" rx="3.5" ry="3.5" style="fill: rgb(85, 145, 97);"/>
  <path d="M 14.984 26.778 L 14.984 33.778 L 10.031 33.778 C 10.149 31.336 10.617 28.987 11.386 26.778 Z" style="fill: rgb(85, 145, 97);"/>
  <ellipse transform="matrix(1, -0.000001, 0.000002, 1, -29.982946, 2.519195)" cx="44.967" cy="27.76" rx="3.5" ry="3.5" style="fill: rgb(85, 145, 97);"/>
  <path d="M 12.888 38.928 L 12.888 45.928 L 12.51 45.928 C 11.451 43.753 10.699 41.4 10.309 38.928 Z" style="fill: rgb(85, 145, 97);"/>
  <path d="M 16.387 42.428 C 16.387 44.361 14.82 45.928 12.887 45.928 C 12.756 45.928 12.627 45.921 12.499 45.907 C 11.584 44.021 10.898 42.002 10.479 39.888 C 11.107 39.293 11.954 38.928 12.887 38.928 C 14.82 38.928 16.387 40.495 16.387 42.428 Z" style="fill: rgb(85, 145, 97);"/>
  <ellipse transform="matrix(1, -0.000001, 0.000002, 1, 9.032925, 14.240236)" cx="44.967" cy="27.76" rx="3.5" ry="3.5" style="fill: rgb(74, 106, 142);"/>
  <path d="M 54 38.5 L 59.759 38.5 C 59.414 40.967 58.708 43.319 57.697 45.5 L 54 45.5 Z" style="fill: rgb(74, 106, 142);"/>
  <ellipse transform="matrix(1, -0.000001, 0.000001, 1.000001, -2.567032, 7.240026)" cx="44.967" cy="27.76" rx="3.5" ry="3.5" style="fill: rgb(85, 145, 97);"/>
  <path d="M 42.402 31.5 L 59.834 31.5 C 59.944 32.645 60.002 33.814 60.002 35.003 C 60.002 36.19 59.944 37.357 59.834 38.5 L 42.402 38.5 Z" style="fill: rgb(85, 145, 97);"/>
  <line style="stroke-linecap: round; stroke-width: 7; fill: rgb(195, 195, 195); stroke: rgb(172, 172, 172);" x1="26.556" y1="23.839" x2="32.556" y2="23.839" bx:origin="0 0"/>
  <line style="stroke-linecap: round; stroke-width: 7; fill: rgb(195, 195, 195); stroke: rgb(172, 172, 172);" x1="28.208" y1="19.417" x2="34.208" y2="19.417" bx:origin="0 0"/>
  <line style="stroke-linecap: round; stroke-width: 7; fill: rgb(195, 195, 195); stroke: rgb(172, 172, 172);" x1="50.475" y1="32.518" x2="54" y2="32.518" bx:origin="0 0"/>
  <g transform="matrix(0.066001, 0, 0, 0.066001, 25.222477, 33.956635)">
    <path style="paint-order: stroke; fill: rgba(0, 0, 0, 0); stroke-linecap: round; stroke-width: 15; stroke: rgb(0, 0, 0);" d="M 17.162 88.167 C 17.162 107.413 37.995 119.441 54.662 109.818 C 62.397 105.352 67.162 97.099 67.162 88.167" transform="matrix(-1, 0, 0, -1, 84.324012, 201.371938)"/>
    <ellipse transform="matrix(1.000001, -0.000022, 0.000021, 1, -854.265935, -428.300689)" cx="1006.417" cy="451.528" rx="40" ry="40"/>
    <ellipse transform="matrix(1, -0.000017, 0.000018, 1, -240.249545, -166.110018)" cx="377.405" cy="169.323" rx="15" ry="15" style="fill: rgb(255, 255, 255);"/>
    <ellipse transform="matrix(1.000001, -0.000021, 0.00002, 1, -1074.264926, -428.302266)" cx="1006.419" cy="451.527" rx="40" ry="40"/>
    <ellipse transform="matrix(1, -0.000019, 0.000021, 1, -460.249152, -166.109524)" cx="377.406" cy="169.323" rx="15" ry="15" style="fill: rgb(255, 255, 255);"/>
  </g>
  <ellipse transform="matrix(1, -0.000001, 0.000001, 1, -5.467087, 21.240373)" cx="44.967" cy="27.76" rx="3.5" ry="3.5" style="fill: rgb(85, 145, 97);"/>
  <path d="M 39.502 45.5 L 55.35 45.5 C 55.45 46.645 55.502 47.814 55.502 49.003 C 55.502 49.107 55.502 49.212 55.501 49.316 C 54.708 50.45 53.823 51.515 52.857 52.5 L 39.502 52.5 Z" style="fill: rgb(85, 145, 97);"/>
  <path d="M 52 49 C 52 47.067 53.567 45.5 55.5 45.5 C 56.21 45.5 56.87 45.711 57.422 46.075 C 56.377 48.186 55.042 50.129 53.47 51.852 C 52.58 51.217 52 50.176 52 49 Z" style="fill: rgb(85, 145, 97);"/>
</svg>