<?xml version="1.0" encoding="utf-8"?>
<svg viewBox="0 0 437 300" width="437px" height="300px" xmlns="http://www.w3.org/2000/svg" xmlns:bx="https://boxy-svg.com">
  <defs>
    <bx:grid x="0" y="0" width="50" height="50"/>
  </defs>
  <path d="M 300.25 150.011 C 300.244 232.854 233.082 300.006 150.239 300 C 67.396 299.994 0.244 232.832 0.25 149.989 C 0.256 67.146 67.418 -0.006 150.261 0 C 233.104 0.006 300.256 67.168 300.25 150.011 Z M 74.978 149.732 C 74.911 144.932 73.745 140.599 71.478 136.732 C 69.211 132.865 66.211 129.832 62.478 127.632 C 58.745 125.432 54.745 124.332 50.478 124.332 C 46.145 124.332 42.095 125.465 38.328 127.732 C 34.561 129.999 31.528 133.249 29.228 137.482 C 26.928 141.715 25.778 146.632 25.778 152.232 C 25.778 157.365 26.895 161.965 29.128 166.032 C 31.361 170.099 34.528 173.265 38.628 175.532 C 42.728 177.799 47.478 178.932 52.878 178.932 C 56.211 178.932 59.478 178.265 62.678 176.932 C 65.878 175.599 68.445 173.965 70.378 172.032 C 71.711 170.899 72.378 169.632 72.378 168.232 C 72.378 167.165 71.995 166.232 71.228 165.432 C 70.461 164.632 69.511 164.232 68.378 164.232 C 67.445 164.232 66.478 164.532 65.478 165.132 C 63.945 166.599 62.178 167.799 60.178 168.732 C 58.178 169.665 55.578 170.132 52.378 170.132 C 47.711 170.132 43.761 168.665 40.528 165.732 C 37.295 162.799 35.445 158.899 34.978 154.032 L 70.178 154.032 C 71.445 154.032 72.545 153.615 73.478 152.782 C 74.411 151.949 74.911 150.932 74.978 149.732 Z M 50.478 133.132 C 54.078 133.132 57.295 134.265 60.128 136.532 C 62.961 138.799 64.545 141.699 64.878 145.232 L 64.878 146.032 L 35.378 146.032 C 36.245 141.632 38.045 138.382 40.778 136.282 C 43.511 134.182 46.745 133.132 50.478 133.132 Z M 128.877 124.832 C 127.477 124.832 126.343 125.299 125.477 126.232 C 124.61 127.165 124.177 128.332 124.177 129.732 L 124.177 132.132 C 122.377 129.865 119.96 127.999 116.927 126.532 C 113.893 125.065 110.61 124.332 107.077 124.332 C 102.677 124.332 98.643 125.499 94.977 127.832 C 91.31 130.165 88.427 133.415 86.327 137.582 C 84.227 141.749 83.177 146.432 83.177 151.632 C 83.177 156.832 84.227 161.515 86.327 165.682 C 88.427 169.849 91.327 173.099 95.027 175.432 C 98.727 177.765 102.843 178.932 107.377 178.932 C 110.843 178.932 114.077 178.115 117.077 176.482 C 120.077 174.849 122.443 172.865 124.177 170.532 L 124.177 173.132 C 124.177 174.532 124.61 175.682 125.477 176.582 C 126.343 177.482 127.477 177.932 128.877 177.932 C 130.277 177.932 131.427 177.465 132.327 176.532 C 133.227 175.599 133.677 174.465 133.677 173.132 L 133.677 129.732 C 133.677 128.265 133.227 127.082 132.327 126.182 C 131.427 125.282 130.277 124.832 128.877 124.832 Z M 108.477 170.132 C 105.343 170.132 102.56 169.332 100.127 167.732 C 97.693 166.132 95.793 163.932 94.427 161.132 C 93.06 158.332 92.377 155.165 92.377 151.632 C 92.377 148.099 93.06 144.932 94.427 142.132 C 95.793 139.332 97.693 137.132 100.127 135.532 C 102.56 133.932 105.343 133.132 108.477 133.132 C 111.61 133.132 114.393 133.949 116.827 135.582 C 119.26 137.215 121.16 139.432 122.527 142.232 C 123.893 145.032 124.577 148.165 124.577 151.632 C 124.577 155.165 123.893 158.332 122.527 161.132 C 121.16 163.932 119.26 166.132 116.827 167.732 C 114.393 169.332 111.61 170.132 108.477 170.132 Z M 173.875 124.332 C 170.142 124.399 166.809 125.449 163.875 127.482 C 160.942 129.515 158.742 132.165 157.275 135.432 L 157.275 130.332 C 157.275 128.999 156.825 127.865 155.925 126.932 C 155.025 125.999 153.875 125.532 152.475 125.532 C 151.142 125.532 150.025 125.999 149.125 126.932 C 148.225 127.865 147.775 128.999 147.775 130.332 L 147.775 173.132 C 147.775 174.532 148.209 175.682 149.075 176.582 C 149.942 177.482 151.075 177.932 152.475 177.932 C 153.875 177.932 155.025 177.465 155.925 176.532 C 156.825 175.599 157.275 174.465 157.275 173.132 L 157.275 149.032 C 157.275 145.965 157.892 143.182 159.125 140.682 C 160.359 138.182 161.959 136.215 163.925 134.782 C 165.892 133.349 167.909 132.632 169.975 132.632 C 170.775 132.632 171.875 132.865 173.275 133.332 C 174.475 133.732 175.375 133.932 175.975 133.932 C 177.175 133.932 178.192 133.515 179.025 132.682 C 179.859 131.849 180.275 130.632 180.275 129.032 C 180.275 127.699 179.642 126.582 178.375 125.682 C 177.109 124.782 175.609 124.332 173.875 124.332 Z M 211.574 134.832 C 212.841 134.832 213.891 134.432 214.724 133.632 C 215.558 132.832 215.974 131.799 215.974 130.532 C 215.974 129.265 215.558 128.215 214.724 127.382 C 213.891 126.549 212.841 126.132 211.574 126.132 L 203.274 126.132 L 203.274 117.732 C 203.274 116.399 202.824 115.265 201.924 114.332 C 201.024 113.399 199.908 112.932 198.574 112.932 C 197.174 112.932 196.024 113.399 195.124 114.332 C 194.224 115.265 193.774 116.399 193.774 117.732 L 193.774 126.132 L 187.974 126.132 C 186.708 126.132 185.658 126.532 184.824 127.332 C 183.991 128.132 183.574 129.165 183.574 130.432 C 183.574 131.699 183.991 132.749 184.824 133.582 C 185.658 134.415 186.708 134.832 187.974 134.832 L 193.774 134.832 L 193.774 165.032 C 193.774 168.899 194.491 171.782 195.924 173.682 C 197.358 175.582 198.991 176.765 200.824 177.232 C 202.658 177.699 204.674 177.932 206.874 177.932 C 208.874 177.932 210.674 177.432 212.274 176.432 C 213.874 175.432 214.674 174.232 214.674 172.832 C 214.674 171.699 214.374 170.765 213.774 170.032 C 213.174 169.299 212.441 168.932 211.574 168.932 C 211.108 168.932 210.474 169.049 209.674 169.282 C 208.874 169.515 208.241 169.632 207.774 169.632 C 204.774 169.632 203.274 167.965 203.274 164.632 L 203.274 134.832 Z M 253.173 124.632 C 249.773 124.632 246.573 125.549 243.573 127.382 C 240.573 129.215 238.24 131.432 236.573 134.032 L 236.573 108.732 C 236.573 107.399 236.123 106.265 235.223 105.332 C 234.323 104.399 233.173 103.932 231.773 103.932 C 230.44 103.932 229.323 104.399 228.423 105.332 C 227.523 106.265 227.073 107.399 227.073 108.732 L 227.073 173.132 C 227.073 174.532 227.507 175.682 228.373 176.582 C 229.24 177.482 230.373 177.932 231.773 177.932 C 233.173 177.932 234.323 177.465 235.223 176.532 C 236.123 175.599 236.573 174.465 236.573 173.132 L 236.573 146.432 C 236.573 142.765 237.873 139.682 240.473 137.182 C 243.073 134.682 246.34 133.432 250.273 133.432 C 257.607 133.432 261.273 137.765 261.273 146.432 L 261.273 173.132 C 261.273 174.465 261.723 175.599 262.623 176.532 C 263.523 177.465 264.64 177.932 265.973 177.932 C 267.373 177.932 268.523 177.465 269.423 176.532 C 270.323 175.599 270.773 174.465 270.773 173.132 L 270.773 146.432 C 270.773 131.899 264.907 124.632 253.173 124.632 Z M 375.152 145.637 L 375.152 145.637 C 376.485 145.637 377.569 146.054 378.402 146.887 L 378.402 146.887 L 378.402 146.887 C 379.235 147.72 379.652 148.804 379.652 150.137 L 379.652 150.137 L 379.652 150.137 C 379.652 151.404 379.235 152.437 378.402 153.237 L 378.402 153.237 L 378.402 153.237 C 377.569 154.037 376.485 154.437 375.152 154.437 L 375.152 154.437 L 359.752 154.437 L 359.752 169.737 L 359.752 169.737 C 359.752 171.204 359.285 172.42 358.352 173.387 L 358.352 173.387 L 358.352 173.387 C 357.419 174.354 356.185 174.837 354.652 174.837 L 354.652 174.837 L 354.652 174.837 C 353.185 174.837 351.969 174.354 351.002 173.387 L 351.002 173.387 L 351.002 173.387 C 350.035 172.42 349.552 171.204 349.552 169.737 L 349.552 169.737 L 349.552 154.437 L 334.252 154.437 L 334.252 154.437 C 332.985 154.437 331.919 154.004 331.052 153.137 L 331.052 153.137 L 331.052 153.137 C 330.185 152.27 329.752 151.204 329.752 149.937 L 329.752 149.937 L 329.752 149.937 C 329.752 148.67 330.169 147.637 331.002 146.837 L 331.002 146.837 L 331.002 146.837 C 331.835 146.037 332.919 145.637 334.252 145.637 L 334.252 145.637 L 349.552 145.637 L 349.552 129.337 L 349.552 129.337 C 349.552 127.87 350.035 126.67 351.002 125.737 L 351.002 125.737 L 351.002 125.737 C 351.969 124.804 353.185 124.337 354.652 124.337 L 354.652 124.337 L 354.652 124.337 C 356.185 124.337 357.419 124.804 358.352 125.737 L 358.352 125.737 L 358.352 125.737 C 359.285 126.67 359.752 127.87 359.752 129.337 L 359.752 129.337 L 359.752 145.637 L 375.152 145.637 Z M 432.251 145.637 L 432.251 145.637 C 433.584 145.637 434.667 146.054 435.501 146.887 L 435.501 146.887 L 435.501 146.887 C 436.334 147.72 436.751 148.804 436.751 150.137 L 436.751 150.137 L 436.751 150.137 C 436.751 151.404 436.334 152.437 435.501 153.237 L 435.501 153.237 L 435.501 153.237 C 434.667 154.037 433.584 154.437 432.251 154.437 L 432.251 154.437 L 416.851 154.437 L 416.851 169.737 L 416.851 169.737 C 416.851 171.204 416.384 172.42 415.451 173.387 L 415.451 173.387 L 415.451 173.387 C 414.517 174.354 413.284 174.837 411.751 174.837 L 411.751 174.837 L 411.751 174.837 C 410.284 174.837 409.067 174.354 408.101 173.387 L 408.101 173.387 L 408.101 173.387 C 407.134 172.42 406.651 171.204 406.651 169.737 L 406.651 169.737 L 406.651 154.437 L 391.351 154.437 L 391.351 154.437 C 390.084 154.437 389.017 154.004 388.151 153.137 L 388.151 153.137 L 388.151 153.137 C 387.284 152.27 386.851 151.204 386.851 149.937 L 386.851 149.937 L 386.851 149.937 C 386.851 148.67 387.267 147.637 388.101 146.837 L 388.101 146.837 L 388.101 146.837 C 388.934 146.037 390.017 145.637 391.351 145.637 L 391.351 145.637 L 406.651 145.637 L 406.651 129.337 L 406.651 129.337 C 406.651 127.87 407.134 126.67 408.101 125.737 L 408.101 125.737 L 408.101 125.737 C 409.067 124.804 410.284 124.337 411.751 124.337 L 411.751 124.337 L 411.751 124.337 C 413.284 124.337 414.517 124.804 415.451 125.737 L 415.451 125.737 L 415.451 125.737 C 416.384 126.67 416.851 127.87 416.851 129.337 L 416.851 129.337 L 416.851 145.637 L 432.251 145.637 Z" style="fill: rgb(0, 35, 195);"/>
</svg>